<mxfile host="app.diagrams.net" modified="2024-03-03T19:38:29.954Z" agent="Mozilla/5.0 (Windows NT 10.0; Win64; x64) AppleWebKit/537.36 (KHTML, like Gecko) Chrome/122.0.0.0 Safari/537.36" version="24.0.1" etag="_jGSFTu8pW30QmWDS9fG" type="github">
  <diagram name="Pagina-1" id="w8LSTX5zhICkdujva498">
    <mxGraphModel>
      <root>
        <mxCell id="0" />
        <mxCell id="1" parent="0" />
      </root>
    </mxGraphModel>
  </diagram>
</mxfile>
